<svg xmlns="http://www.w3.org/2000/svg" xmlns:xlink="http://www.w3.org/1999/xlink" width="1200" zoomAndPan="magnify" viewBox="0 0 900 472.499986" height="630" preserveAspectRatio="xMidYMid meet" version="1.0"><defs><g/><clipPath id="2a2373144d"><path d="M 0.476562 0 L 899.523438 0 L 899.523438 472 L 0.476562 472 Z M 0.476562 0 " clip-rule="nonzero"/></clipPath><clipPath id="03a1bda7a6"><path d="M 0.25 0.890625 L 833 0.890625 L 833 268.929688 L 0.25 268.929688 Z M 0.25 0.890625 " clip-rule="nonzero"/></clipPath><clipPath id="966c5c5dcb"><rect x="0" width="833" y="0" height="269"/></clipPath><clipPath id="fcc43f09ef"><rect x="0" width="857" y="0" height="269"/></clipPath></defs><g clip-path="url(#2a2373144d)"><path fill="#ffffff" d="M 0.476562 0 L 899.523438 0 L 899.523438 472 L 0.476562 472 Z M 0.476562 0 " fill-opacity="1" fill-rule="nonzero"/><path fill="#ffffff" d="M 0.476562 0 L 899.523438 0 L 899.523438 472 L 0.476562 472 Z M 0.476562 0 " fill-opacity="1" fill-rule="nonzero"/></g><g transform="matrix(1, 0, 0, 1, 23, 101)"><g clip-path="url(#fcc43f09ef)"><g clip-path="url(#03a1bda7a6)"><g transform="matrix(1, 0, 0, 1, -0.000000000000003553, -0.000000000000028422)"><g clip-path="url(#966c5c5dcb)"><g fill="#111111" fill-opacity="1"><g transform="translate(0.486531, 214.610024)"><g><path d="M 46.046875 2.15625 C 38.335938 2.15625 31.492188 0.84375 25.515625 -1.78125 C 19.535156 -4.414062 14.847656 -8.328125 11.453125 -13.515625 C 8.066406 -18.703125 6.375 -25.257812 6.375 -33.1875 C 6.375 -39.8125 7.546875 -45.394531 9.890625 -49.9375 C 12.234375 -54.476562 15.476562 -58.171875 19.625 -61.015625 C 23.769531 -63.867188 28.539062 -66.050781 33.9375 -67.5625 C 39.34375 -69.070312 45.109375 -70.082031 51.234375 -70.59375 C 58.085938 -71.164062 63.601562 -71.796875 67.78125 -72.484375 C 71.957031 -73.171875 74.984375 -74.179688 76.859375 -75.515625 C 78.734375 -76.847656 79.671875 -78.703125 79.671875 -81.078125 L 79.671875 -81.609375 C 79.671875 -84.273438 79.019531 -86.5625 77.71875 -88.46875 C 76.425781 -90.382812 74.570312 -91.847656 72.15625 -92.859375 C 69.738281 -93.867188 66.800781 -94.375 63.34375 -94.375 C 59.882812 -94.375 56.835938 -93.847656 54.203125 -92.796875 C 51.578125 -91.753906 49.414062 -90.296875 47.71875 -88.421875 C 46.03125 -86.546875 44.898438 -84.347656 44.328125 -81.828125 L 10.046875 -85.296875 C 11.421875 -92.503906 14.394531 -98.789062 18.96875 -104.15625 C 23.550781 -109.519531 29.625 -113.679688 37.1875 -116.640625 C 44.75 -119.597656 53.6875 -121.078125 64 -121.078125 C 71.632812 -121.078125 78.691406 -120.191406 85.171875 -118.421875 C 91.660156 -116.660156 97.300781 -114.066406 102.09375 -110.640625 C 106.894531 -107.210938 110.609375 -103.015625 113.234375 -98.046875 C 115.867188 -93.078125 117.1875 -87.347656 117.1875 -80.859375 L 117.1875 0 L 81.515625 0 L 81.515625 -16.75 L 80.640625 -16.75 C 78.484375 -12.644531 75.765625 -9.1875 72.484375 -6.375 C 69.203125 -3.5625 65.363281 -1.4375 60.96875 0 C 56.570312 1.4375 51.597656 2.15625 46.046875 2.15625 Z M 57.515625 -22.703125 C 61.691406 -22.703125 65.488281 -23.546875 68.90625 -25.234375 C 72.332031 -26.929688 75.035156 -29.273438 77.015625 -32.265625 C 79.003906 -35.253906 80 -38.695312 80 -42.59375 L 80 -53.9375 C 78.988281 -53.363281 77.6875 -52.84375 76.09375 -52.375 C 74.507812 -51.90625 72.78125 -51.453125 70.90625 -51.015625 C 69.039062 -50.585938 67.113281 -50.210938 65.125 -49.890625 C 63.144531 -49.566406 61.21875 -49.257812 59.34375 -48.96875 C 55.738281 -48.46875 52.640625 -47.601562 50.046875 -46.375 C 47.453125 -45.144531 45.46875 -43.59375 44.09375 -41.71875 C 42.726562 -39.851562 42.046875 -37.585938 42.046875 -34.921875 C 42.046875 -32.328125 42.710938 -30.109375 44.046875 -28.265625 C 45.378906 -26.429688 47.195312 -25.046875 49.5 -24.109375 C 51.8125 -23.171875 54.484375 -22.703125 57.515625 -22.703125 Z M 57.515625 -22.703125 "/></g></g></g><g fill="#111111" fill-opacity="1"><g transform="translate(125.022109, 214.610024)"><g><path d="M 83.890625 1.953125 C 78.046875 1.953125 72.890625 0.976562 68.421875 -0.96875 C 63.953125 -2.914062 60.222656 -5.472656 57.234375 -8.640625 C 54.242188 -11.816406 51.882812 -15.316406 50.15625 -19.140625 L 49.1875 -19.140625 L 49.1875 0 L 12 0 L 12 -161.078125 L 49.625 -161.078125 L 49.625 -99.78125 L 50.265625 -99.78125 C 51.992188 -103.519531 54.332031 -107.007812 57.28125 -110.25 C 60.238281 -113.5 63.929688 -116.113281 68.359375 -118.09375 C 72.796875 -120.082031 78.078125 -121.078125 84.203125 -121.078125 C 92.929688 -121.078125 100.953125 -118.785156 108.265625 -114.203125 C 115.578125 -109.628906 121.445312 -102.785156 125.875 -93.671875 C 130.3125 -84.554688 132.53125 -73.1875 132.53125 -59.5625 C 132.53125 -46.300781 130.382812 -35.09375 126.09375 -25.9375 C 121.8125 -16.789062 116.007812 -9.851562 108.6875 -5.125 C 101.375 -0.40625 93.109375 1.953125 83.890625 1.953125 Z M 71.5625 -27.5625 C 76.394531 -27.5625 80.46875 -28.894531 83.78125 -31.5625 C 87.09375 -34.226562 89.628906 -37.957031 91.390625 -42.75 C 93.160156 -47.539062 94.046875 -53.179688 94.046875 -59.671875 C 94.046875 -66.160156 93.160156 -71.78125 91.390625 -76.53125 C 89.628906 -81.289062 87.09375 -84.984375 83.78125 -87.609375 C 80.46875 -90.242188 76.394531 -91.5625 71.5625 -91.5625 C 66.800781 -91.5625 62.691406 -90.265625 59.234375 -87.671875 C 55.773438 -85.078125 53.125 -81.398438 51.28125 -76.640625 C 49.445312 -71.890625 48.53125 -66.234375 48.53125 -59.671875 C 48.53125 -53.179688 49.46875 -47.539062 51.34375 -42.75 C 53.21875 -37.957031 55.863281 -34.226562 59.28125 -31.5625 C 62.707031 -28.894531 66.800781 -27.5625 71.5625 -27.5625 Z M 71.5625 -27.5625 "/></g></g></g><g fill="#111111" fill-opacity="1"><g transform="translate(260.151917, 214.610024)"><g><path d="M 49.625 -161.078125 L 49.625 0 L 12 0 L 12 -161.078125 Z M 49.625 -161.078125 "/></g></g></g><g fill="#111111" fill-opacity="1"><g transform="translate(317.122114, 214.610024)"><g><path d="M 46.046875 2.15625 C 38.335938 2.15625 31.492188 0.84375 25.515625 -1.78125 C 19.535156 -4.414062 14.847656 -8.328125 11.453125 -13.515625 C 8.066406 -18.703125 6.375 -25.257812 6.375 -33.1875 C 6.375 -39.8125 7.546875 -45.394531 9.890625 -49.9375 C 12.234375 -54.476562 15.476562 -58.171875 19.625 -61.015625 C 23.769531 -63.867188 28.539062 -66.050781 33.9375 -67.5625 C 39.34375 -69.070312 45.109375 -70.082031 51.234375 -70.59375 C 58.085938 -71.164062 63.601562 -71.796875 67.78125 -72.484375 C 71.957031 -73.171875 74.984375 -74.179688 76.859375 -75.515625 C 78.734375 -76.847656 79.671875 -78.703125 79.671875 -81.078125 L 79.671875 -81.609375 C 79.671875 -84.273438 79.019531 -86.5625 77.71875 -88.46875 C 76.425781 -90.382812 74.570312 -91.847656 72.15625 -92.859375 C 69.738281 -93.867188 66.800781 -94.375 63.34375 -94.375 C 59.882812 -94.375 56.835938 -93.847656 54.203125 -92.796875 C 51.578125 -91.753906 49.414062 -90.296875 47.71875 -88.421875 C 46.03125 -86.546875 44.898438 -84.347656 44.328125 -81.828125 L 10.046875 -85.296875 C 11.421875 -92.503906 14.394531 -98.789062 18.96875 -104.15625 C 23.550781 -109.519531 29.625 -113.679688 37.1875 -116.640625 C 44.75 -119.597656 53.6875 -121.078125 64 -121.078125 C 71.632812 -121.078125 78.691406 -120.191406 85.171875 -118.421875 C 91.660156 -116.660156 97.300781 -114.066406 102.09375 -110.640625 C 106.894531 -107.210938 110.609375 -103.015625 113.234375 -98.046875 C 115.867188 -93.078125 117.1875 -87.347656 117.1875 -80.859375 L 117.1875 0 L 81.515625 0 L 81.515625 -16.75 L 80.640625 -16.75 C 78.484375 -12.644531 75.765625 -9.1875 72.484375 -6.375 C 69.203125 -3.5625 65.363281 -1.4375 60.96875 0 C 56.570312 1.4375 51.597656 2.15625 46.046875 2.15625 Z M 57.515625 -22.703125 C 61.691406 -22.703125 65.488281 -23.546875 68.90625 -25.234375 C 72.332031 -26.929688 75.035156 -29.273438 77.015625 -32.265625 C 79.003906 -35.253906 80 -38.695312 80 -42.59375 L 80 -53.9375 C 78.988281 -53.363281 77.6875 -52.84375 76.09375 -52.375 C 74.507812 -51.90625 72.78125 -51.453125 70.90625 -51.015625 C 69.039062 -50.585938 67.113281 -50.210938 65.125 -49.890625 C 63.144531 -49.566406 61.21875 -49.257812 59.34375 -48.96875 C 55.738281 -48.46875 52.640625 -47.601562 50.046875 -46.375 C 47.453125 -45.144531 45.46875 -43.59375 44.09375 -41.71875 C 42.726562 -39.851562 42.046875 -37.585938 42.046875 -34.921875 C 42.046875 -32.328125 42.710938 -30.109375 44.046875 -28.265625 C 45.378906 -26.429688 47.195312 -25.046875 49.5 -24.109375 C 51.8125 -23.171875 54.484375 -22.703125 57.515625 -22.703125 Z M 57.515625 -22.703125 "/></g></g></g><g fill="#111111" fill-opacity="1"><g transform="translate(441.65768, 214.610024)"><g><path d="M 53.296875 1.734375 C 44.929688 1.734375 37.648438 -0.117188 31.453125 -3.828125 C 25.253906 -7.546875 20.460938 -12.804688 17.078125 -19.609375 C 13.691406 -26.421875 12 -34.40625 12 -43.5625 L 12 -119.34375 L 49.625 -119.34375 L 49.625 -51.03125 C 49.625 -44.25 51.332031 -38.945312 54.75 -35.125 C 58.175781 -31.3125 62.953125 -29.40625 69.078125 -29.40625 C 73.109375 -29.40625 76.65625 -30.285156 79.71875 -32.046875 C 82.78125 -33.816406 85.160156 -36.375 86.859375 -39.71875 C 88.554688 -43.070312 89.40625 -47.128906 89.40625 -51.890625 L 89.40625 -119.34375 L 127.015625 -119.34375 L 127.015625 0 L 91.234375 0 L 90.703125 -30.484375 L 93.1875 -30.484375 C 90.082031 -20.753906 85.320312 -12.953125 78.90625 -7.078125 C 72.5 -1.203125 63.960938 1.734375 53.296875 1.734375 Z M 53.296875 1.734375 "/></g></g></g><g fill="#111111" fill-opacity="1"><g transform="translate(576.030796, 214.610024)"><g><path d="M 84.109375 -119.34375 L 84.109375 -91.234375 L 2.15625 -91.234375 L 2.15625 -119.34375 Z M 22.59375 0 L 22.59375 -127.234375 C 22.59375 -136.171875 24.265625 -143.578125 27.609375 -149.453125 C 30.960938 -155.328125 35.703125 -159.703125 41.828125 -162.578125 C 47.960938 -165.460938 55.171875 -166.90625 63.453125 -166.90625 C 68.492188 -166.90625 73.285156 -166.582031 77.828125 -165.9375 C 82.367188 -165.289062 85.6875 -164.75 87.78125 -164.3125 L 83.125 -136.421875 C 81.757812 -136.710938 80.046875 -136.984375 77.984375 -137.234375 C 75.929688 -137.484375 73.972656 -137.609375 72.109375 -137.609375 C 67.640625 -137.609375 64.503906 -136.617188 62.703125 -134.640625 C 60.898438 -132.660156 60 -129.796875 60 -126.046875 L 60 0 Z M 22.59375 0 "/></g></g></g><g fill="#111111" fill-opacity="1"><g transform="translate(657.865031, 214.610024)"><g><path d="M 67.890625 2.375 C 55.492188 2.375 44.753906 -0.195312 35.671875 -5.34375 C 26.585938 -10.5 19.59375 -17.707031 14.6875 -26.96875 C 9.789062 -36.226562 7.34375 -47.019531 7.34375 -59.34375 C 7.34375 -71.664062 9.789062 -82.457031 14.6875 -91.71875 C 19.59375 -100.976562 26.585938 -108.1875 35.671875 -113.34375 C 44.753906 -118.5 55.492188 -121.078125 67.890625 -121.078125 C 80.359375 -121.078125 91.113281 -118.5 100.15625 -113.34375 C 109.195312 -108.1875 116.164062 -100.976562 121.0625 -91.71875 C 125.96875 -82.457031 128.421875 -71.664062 128.421875 -59.34375 C 128.421875 -47.019531 125.96875 -36.226562 121.0625 -26.96875 C 116.164062 -17.707031 109.195312 -10.5 100.15625 -5.34375 C 91.113281 -0.195312 80.359375 2.375 67.890625 2.375 Z M 67.890625 -26.703125 C 72.640625 -26.703125 76.671875 -28.050781 79.984375 -30.75 C 83.304688 -33.457031 85.832031 -37.257812 87.5625 -42.15625 C 89.289062 -47.0625 90.15625 -52.828125 90.15625 -59.453125 C 90.15625 -66.160156 89.289062 -71.945312 87.5625 -76.8125 C 85.832031 -81.675781 83.304688 -85.441406 79.984375 -88.109375 C 76.671875 -90.773438 72.640625 -92.109375 67.890625 -92.109375 C 63.203125 -92.109375 59.179688 -90.773438 55.828125 -88.109375 C 52.484375 -85.441406 49.945312 -81.675781 48.21875 -76.8125 C 46.488281 -71.945312 45.625 -66.160156 45.625 -59.453125 C 45.625 -52.828125 46.488281 -47.0625 48.21875 -42.15625 C 49.945312 -37.257812 52.484375 -33.457031 55.828125 -30.75 C 59.179688 -28.050781 63.203125 -26.703125 67.890625 -26.703125 Z M 67.890625 -26.703125 "/></g></g></g><g fill="#000000" fill-opacity="1"><g transform="translate(789.003628, 214.610024)"><g/></g></g></g></g></g><g fill="#1b3fbf" fill-opacity="1"><g transform="translate(791.028484, 214.628671)"><g><path d="M 34.8125 2.046875 C 29.550781 2.046875 25.117188 0.265625 21.515625 -3.296875 C 17.910156 -6.859375 16.109375 -11.273438 16.109375 -16.546875 C 16.109375 -21.734375 17.910156 -26.109375 21.515625 -29.671875 C 25.117188 -33.242188 29.550781 -35.03125 34.8125 -35.03125 C 40 -35.03125 44.394531 -33.242188 48 -29.671875 C 51.601562 -26.109375 53.40625 -21.734375 53.40625 -16.546875 C 53.40625 -11.273438 51.601562 -6.859375 48 -3.296875 C 44.394531 0.265625 40 2.046875 34.8125 2.046875 Z M 34.8125 2.046875 "/></g></g></g></g></g></svg>